PathFileType	4	(X/Y/Z)	Patient4_TMGait_0pt4_02_right_30.trc.trc
DataRate	CameraRate	NumFrames	NumMarkers	Units	OrigDataRate	OrigDataStartFrame	OrigNumFrames
76.086956521739	76.086956521739	6	33	mm	76.086956521739	36	       141
Frame#	Time	Sacral			L.Shoulder			Chest			R.Shoulder			Neck			R.ASIS			L.ASIS			R.Thigh.Superior			R.Thigh.Lateral			R.Thigh.Inferior			R.Patella			L.Thigh.Superior			L.Thigh.Lateral			L.Thigh.Inferior			L.Patella			L.Shank.Superior			L.Shank.Lateral			L.Shank.Inferior			R.Shank.Superior			R.Shank.Lateral			R.Shank.Inferior			R.Heel			R.Midfoot.Superior			R.Midfoot.Lateral			R.Toe			L.Heel			L.Midfoot.Lateral			L.Midfoot.Superior			L.Toe			L.Elbow			L.Wrist			R.Elbow			R.Wrist			
		X1	Y1	Z1	X2	Y2	Z2	X3	Y3	Z3	X4	Y4	Z4	X5	Y5	Z5	X6	Y6	Z6	X7	Y7	Z7	X8	Y8	Z8	X9	Y9	Z9	X10	Y10	Z10	X11	Y11	Z11	X12	Y12	Z12	X13	Y13	Z13	X14	Y14	Z14	X15	Y15	Z15	X16	Y16	Z16	X17	Y17	Z17	X18	Y18	Z18	X19	Y19	Z19	X20	Y20	Z20	X21	Y21	Z21	X22	Y22	Z22	X23	Y23	Z23	X24	Y24	Z24	X25	Y25	Z25	X26	Y26	Z26	X27	Y27	Z27	X28	Y28	Z28	X29	Y29	Z29	X30	Y30	Z30	X31	Y31	Z31	X32	Y32	Z32	X33	Y33	Z33	

36	40.030000000000	883.872987631266	992.411481449327	450.510304166068	1052.792703503578	1429.875329127051	277.209006689440	1142.612938245067	1370.796391168299	449.262471810881	1035.475641904637	1437.442012517741	612.948170478759	1015.268103768836	1491.535637976880	431.207062149984	1110.721546342576	942.029906063792	582.288743932376	1109.547869327393	963.703260550421	307.317490809750	1174.615555890996	748.110976767615	549.675113169043	1105.839367964370	631.189487067884	612.244892567520	1190.437690760565	586.095606214718	534.129825486273	1201.220305503922	495.305063315818	543.326321302180	1130.941533337252	735.973922691718	326.181320633601	1025.417325373494	629.997148599379	261.843245164190	1101.457896925964	539.867366813166	318.433224587003	1089.949995840186	461.087526644474	317.715181030708	1035.485981577239	400.618105890722	311.843325486002	907.790256863153	324.809761491996	267.882521830497	926.258943123358	197.169586399640	326.778239806766	1169.602756385542	405.293001193661	552.937504385347	1095.614016800469	304.713811469537	616.897779794070	1137.261846745875	207.073919557710	558.392814152638	1004.614645298328	42.899428544105	530.893807796678	1173.134128586246	98.051781240493	571.850931836258	1084.969914321634	37.507665794933	609.521707404447	1292.921008185713	47.248073654143	606.368784417870	763.883486802534	73.530640878799	373.084838740148	831.932385752496	51.742762642000	291.739870077026	925.537288448418	100.856368065962	311.199276956965	1040.515966549321	37.683843417705	282.067346872326	1091.906619101993	1086.659600399345	144.170843042124	1260.201243906052	887.761498924728	108.394209296907	974.231505245947	1093.460800837512	729.412433408584	1094.694060369626	861.353487892771	742.117920663675	
37	40.043142857143	884.717285820083	992.620917021550	454.476775971810	1051.349133547906	1430.847059678644	280.818024293026	1142.593082437836	1371.592105880787	452.084371431210	1036.575994313979	1437.730752033816	616.675949165613	1014.922551859429	1492.078801281694	435.220646259193	1112.222260484781	942.917063438408	585.101949284285	1109.695837734795	964.219618269653	310.267147493349	1174.104544153701	747.470132772450	553.295705934156	1103.492386381294	631.149355304932	614.827635634092	1187.919484207256	585.466569607939	536.969705989378	1197.582818555621	494.768881158480	545.462491089818	1136.094934824996	737.618025400115	328.970728638549	1034.446685164886	629.477209124835	263.454890195799	1113.444148906461	540.554640484152	319.385423155336	1102.826531223385	460.307561006216	317.143658029333	1045.595612737271	400.304640139609	311.608769641083	914.968011307649	329.395413480030	268.178744880444	929.206500247898	200.833839694875	325.724640349266	1165.778921300897	404.855834878577	554.639409829347	1091.564345465098	304.215998322409	617.909160380488	1132.773722162860	206.720155032653	559.036360532805	999.477645773719	42.891066345090	531.011414308443	1168.044461888139	97.801660421935	572.015227123149	1079.833959474581	37.482246646241	609.646763874381	1287.866361148506	46.865412991567	606.578000463063	762.451744623997	84.517408409260	372.072817630826	829.073558446965	58.308818760846	291.161253476124	924.711452808655	103.041835618159	309.762811642936	1035.432336566284	36.926874134714	281.964071679522	1086.612282027865	1086.617163047988	148.967605846364	1244.722769327941	879.670605755545	112.941726144444	982.505822778419	1092.608588626475	734.298003046449	1114.532479376597	867.069345556341	745.159009446952	
38	40.056285714286	885.385302029385	992.870483054205	458.508212441131	1049.813613695450	1431.673725322928	284.309428110320	1142.594681522259	1372.286762822213	454.742976694478	1037.863075054318	1438.036497657082	620.281980086282	1014.627789429655	1492.560614920372	439.099545808576	1113.529184740623	943.725830554349	587.899012809199	1109.567220538048	964.586140909721	313.221819771322	1173.328592145234	746.803832772980	556.950949623135	1100.868035002215	631.097917013460	617.471787015965	1185.089198008584	584.830052276200	539.850826250504	1193.628365115633	494.243403425943	547.678128578216	1141.361601396620	739.478891161760	331.815362040527	1044.152917185493	629.176640357012	264.843151269205	1126.078066760907	541.703356099105	320.291029439676	1116.486634897450	460.085542278352	316.630092134340	1056.697344138610	400.401196612527	311.329770979523	923.335496100534	334.567363152893	268.270466847689	933.177778042142	205.298738638844	324.608747713097	1161.684845686222	404.446181445599	556.406315103597	1087.282457018897	303.705863867411	618.976238324914	1128.120424782700	206.383399586409	559.713590690554	994.249009028468	42.874636404223	531.099907027585	1162.878622088929	97.506804237293	572.197401837056	1074.599976038945	37.442997454110	609.751349142429	1282.721784267236	46.428447651112	606.786448683726	762.067515249880	97.242882765897	370.986596111505	826.895070950755	66.347094535935	290.509777081354	924.601171127960	105.920359577916	308.335566215054	1030.334284424300	36.076248121460	281.875334854727	1080.843528482929	1086.462672800123	153.654732747182	1228.641646883987	872.118176156862	117.608003932721	991.083689787088	1092.039780258447	739.232770257716	1134.711150687461	873.967032628096	747.833158385817	
39	40.069428571429	885.853199673469	993.121782375212	462.569640732193	1048.224310818300	1432.311121608206	287.651265971095	1142.623517258880	1372.828824823554	457.217708864873	1039.328483537693	1438.317493634002	623.732523937536	1014.401717829576	1492.953345600702	442.804058284970	1114.626309165677	944.415151695833	590.648179515764	1109.156548013118	964.773690503314	316.131517918536	1172.350310045857	746.145718463961	560.484263168013	1098.159201307787	631.045434831515	620.136820780012	1182.076333420743	584.203358504800	542.669589019663	1189.501128652499	493.726388387131	549.917402594995	1146.627671411340	741.574813814392	334.654551460792	1054.317846367976	629.170658241366	266.023899594417	1139.082547044504	543.386401683605	321.167419192744	1130.680518360277	460.508376685907	316.250885188562	1068.592314515852	400.970039424057	311.076484208304	932.742582772956	340.282867754070	268.210463031536	938.103846650861	210.532355056376	323.528629844443	1157.454184410532	404.055076524734	558.197837045902	1082.893130595076	303.198540384688	620.104702793250	1123.375691252608	206.061485421364	560.415720644068	988.959500196784	42.860671445753	531.179387356438	1157.670333955153	97.205591527010	572.408393408530	1069.301408444746	37.399126334091	609.852752167432	1277.518822551407	45.951430155771	606.994163746092	762.808289606325	111.512157609658	369.894614437503	825.502951614302	75.834446503353	289.829969464941	925.212948325702	109.575546700045	307.014827755316	1025.318356060769	35.133314213655	281.800025258916	1074.537095440742	1086.138354168241	158.245663881240	1212.053349742112	865.118096252190	122.372511983414	999.933972295631	1091.721892930627	744.172393626465	1155.078504647598	882.028049671579	750.127984002718	
40	40.082571428571	886.104608389959	993.344177504513	466.630173017628	1046.611905906793	1432.734273863848	290.814614027212	1142.678916006328	1373.187381180230	459.489846392544	1040.954906713403	1438.546155197011	626.996870699933	1014.257500559170	1493.244386170090	446.299975813208	1115.508445050079	944.957131673103	593.315843846212	1108.475121584054	964.782237185297	318.946798137698	1171.225157419031	745.520002907083	563.769525498955	1095.514517906589	630.995852204196	622.779641420472	1178.989937841152	583.597297377791	545.339447947778	1185.324631008223	493.215223670962	552.122694205027	1151.780706716783	743.930244623193	337.430278762236	1064.682251070823	629.533028361954	267.032687571430	1152.164179267170	545.663637740462	322.027238269201	1145.137375364273	461.640966451981	316.054665766916	1081.039644881520	402.063772784528	310.907372302675	942.981047998804	346.470061069131	268.061134747798	943.879382754978	216.454061891783	322.578567801974	1153.198932533054	403.674080424144	559.972043884211	1078.494062225156	302.707067953919	621.283271348544	1118.602156771065	205.752699335350	561.129911607757	983.640311280723	42.857603479766	531.263937567156	1152.448816714568	96.927597778276	572.651487918129	1063.971023307810	37.358160388479	609.962949828855	1272.286678604705	45.452434860343	607.199991256347	764.710405060215	126.982007221651	368.872544999880	825.000951489570	86.613369886448	289.172966204315	926.555458528413	114.037159683535	305.887251780446	1020.550231945654	34.129500760222	281.736258927860	1067.647337491851	1085.614539616677	162.758888938200	1195.045938481980	858.668837261297	127.212923832522	1009.032345355339	1091.628579801520	749.068938530144	1175.476820972866	891.213146806665	752.029440056962	
41	40.095714285714	886.134514682301	993.521429603322	470.663433719963	1044.996742443703	1432.942502687361	293.776705693419	1142.754340980565	1373.357508263534	461.544294404207	1042.718624683192	1438.714638362789	630.049689332479	1014.201532524967	1493.438705358623	449.561126867290	1116.181850159225	945.341113595663	595.869594847699	1107.544266380731	964.639647652950	321.626288904306	1169.995971564260	744.940739922500	566.722639354577	1093.023393831202	630.949371415144	625.357012574993	1175.908115432801	583.017042689822	547.799602167523	1181.188467128089	492.708728436402	554.240204012050	1156.714099159785	746.569715419075	340.095139609859	1074.966752076841	630.326818585194	267.918493215962	1165.034638835072	548.573461587003	322.874080070038	1159.579730709120	463.520571473028	316.054432549464	1093.773878702493	403.719305461011	310.858833733342	953.801928373869	353.023921369973	267.884921033700	950.380072909489	222.929155501699	321.833632375073	1148.997148388063	403.297434583203	561.688369701783	1074.147938522541	302.242746337991	622.487746684256	1113.844412020151	205.456640655849	561.840201497963	978.317059804478	42.871002077881	531.361441434899	1147.233649736238	96.689660572461	572.920700215668	1058.635568259926	37.325281514894	610.087859440213	1267.047686762733	44.950885365875	607.401573842855	767.770174444388	143.158521602420	367.992623215142	825.492204510408	98.374299378544	288.589242774671	928.655257671269	119.257194152679	305.015100568462	1016.279779156659	33.132115807278	281.680249256838	1060.153898403305	1084.896925936286	167.215616439822	1177.700343789823	852.765259093727	132.106600095142	1018.360762663480	1091.746827282821	753.871481253311	1195.745733311406	901.468373729306	753.520687170260	
